<?xml version="1.0" encoding="UTF-8"?>
<svg id="uuid-c64d0358-686a-4acc-978a-02f9772cbfda" data-name="Layer 2" xmlns="http://www.w3.org/2000/svg" xmlns:xlink="http://www.w3.org/1999/xlink" viewBox="0 0 741.04 364.63">
  <defs>
    <style>
      .uuid-a343002a-d89c-4121-806e-a6b5df3ce9a4 {
        clip-path: url(#uuid-5cd4ef65-2bad-4397-8eb8-37ca6c1875fe);
      }

      .uuid-a7d2c09d-4ebc-474e-9713-c1a918d43866 {
        fill: #394737;
      }

      .uuid-2018dc74-6d86-43a7-8d3d-c627a9756fcf {
        fill: none;
      }

      .uuid-cbb114ff-726d-4833-ab1b-d2acabdfb799 {
        fill: #798e76;
      }
    </style>
    <clipPath id="uuid-5cd4ef65-2bad-4397-8eb8-37ca6c1875fe">
      <path class="uuid-2018dc74-6d86-43a7-8d3d-c627a9756fcf" d="M-2-2v368.63h745.04V-2H-2ZM56.28,304.53c-2.74.92-5.45,1.72-8.09,2.37-4.74,1.22-9.14,2.07-13.42,2.61v-4.66c7.24-.76,14.45-2.5,21.51-5.2v4.88ZM169.44,307.58c-.42.78-.83,1.56-1.25,2.34-1.61,3.04-3.27,6.18-4.91,9.16-.82,1.21-1.78,2.62-3.45,2.62-.5,0-1.02-.13-1.56-.4-2.88-1.42-2.23-3.98-1.91-5.22l.06-.17c1.15-2.47,2.2-4.99,3.22-7.43,1.02-2.46,2.08-5,3.25-7.5,1.86-5.08,3.77-10.22,5.68-15.37l.88-.5v22.48ZM257.57,304.39c-2.45,3.61-4.83,7.2-7.08,10.68-2.72,4.17-5.07,7.88-7.19,11.33h-14.69c3.12-6.27,6.75-12.8,11.41-20.54.32-.53.65-1.07.98-1.6h16.58v.12ZM331.85,175.72c-4.53,1.23-8.96,2.79-13.48,4.81-3.49,1.56-7.14,3.31-10.83,5.2v-4.71c1.97-1.03,3.71-1.92,5.36-2.75,6.4-3.14,12.77-5.6,18.96-7.33v4.78ZM381.76,111.03c-15.54-.55-30.93-1.75-42.6-2.75l-.71-.7c5.43-1.67,11.54-2.53,18.33-2.53,10.07,0,18.66,1.84,25.73,5.4l-.75.57ZM448.53,308c-4.57,3.19-9.13,6.39-13.69,9.61-4.1,3.02-7.97,5.4-11.8,7.27l-.19-.02,1.18-6.35c.66-.4,1.26-.79,1.81-1.18,3.02-2.05,6.19-4.12,9.25-6.12,3.06-2,6.23-4.07,9.23-6.11.91-.64,1.84-1.29,2.77-1.93l2.13-1.48h.42s-1.1,6.31-1.1,6.31ZM532.09,303.91c-4.76,6.05-9.67,12.31-14.93,18.08-1.33,1.3-2.51,2.88-3.34,4.41h-1.78l-2.22-12.75,14.56-21.41c.84-1.23,1.68-2.46,2.52-3.68l1.79-2.61.39-.16,3.32,17.75-.29.37ZM607.35,239.98l-1.28-4.11c.57-.33,1.14-.66,1.72-.98,5.15-3.11,11.24-6.58,17.51-8.97l1.37,4.33c-7.09,2.63-13.7,6.35-19.32,9.74Z"/>
    </clipPath>
  </defs>
  <g id="uuid-b3b69994-c856-40b7-adb5-fafc589b3f10" data-name="Full Name Final">
    <g>
      <g>
        <path class="uuid-a7d2c09d-4ebc-474e-9713-c1a918d43866" d="M213.19,213.12c-11.54,6.34-21.69,12.22-32.31,18.56-32.31,19.47-64.16,39.84-96.47,58.4-11.54,6.79-23.54,12.68-36.46,15.84-8.77,2.26-17.54,3.62-26.77,3.17-2.77-.45-5.54-.91-8.31-1.81-7.38-2.72-11.54-7.7-12.46-15.39-1.38-8.6.92-17.2,4.15-24.9,5.08-13.13,13.85-24.45,23.08-34.86,14.31-16.75,31.39-30.33,52.62-38.03,6.92-2.72,14.31-4.07,22.16-3.17,2.31.45,5.08.91,7.38,2.26,5.54,2.26,8.31,6.79,8.77,12.68.46,8.6-2.31,16.75-6.92,23.99-.46.45-1.38,1.36-2.31,1.81-.92.91-1.85.45-2.77-.45-.92-.45-.92-1.36-.92-2.26.46-2.26,2.31-4.53,3.23-6.34,2.77-3.62,3.69-8.15,3.23-12.68-.46-4.07-2.77-7.24-6.92-8.6-3.69-1.36-7.38-1.36-11.08-.91-5.54.91-10.15,2.26-15.23,4.53-12.46,5.88-24,14.03-33.69,23.54-11.54,11.32-21.69,23.09-30,36.22-3.69,6.34-6,12.68-7.85,19.92-.46,1.81-.46,4.07-.46,6.34-.46,7.7,3.69,12.68,11.08,14.94,5.54,1.36,11.08.91,16.16,0,9.69-.91,19.39-3.62,28.16-7.7,16.15-7.24,30.92-16.75,45.69-25.8,29.54-17.2,59.08-34.86,88.62-52.51,3.69-1.81,6.92-3.62,10.62-5.43,1.38-.91,3.23-1.81,6-1.36Z"/>
        <path class="uuid-a7d2c09d-4ebc-474e-9713-c1a918d43866" d="M184.11,276.5c.92,0,1.38-.91,1.85-1.36,19.39-23.99,43.39-42.55,68.77-60.21,18.46-13.13,37.85-25.35,58.62-35.76,6.46-3.17,13.38-5.88,20.31-7.7,3.23-.91,7.38-2.26,10.15.45,3.23,3.17,2.31,6.79.92,10.41-.92,3.62-2.31,6.34-4.15,9.05-8.31,14.49-19.39,27.62-30,40.74-21.23,26.71-42.46,53.87-60.93,82.39-7.38,11.32-14.31,22.63-19.85,34.41-.92,2.72-1.85,5.43-2.31,8.15-.92,3.17.46,4.53,3.69,3.17,2.31-.91,4.62-2.26,6.46-3.62,9.23-5.88,17.54-13.13,25.39-20.37,29.08-26.26,58.62-51.15,88.62-76.51,13.38-10.86,26.77-22.18,41.08-32.14,2.31-1.81,4.62-3.17,7.38-4.07.46.91,0,1.36-.92,1.81-24,16.3-45.7,35.76-67.85,54.32-18.92,16.3-37.85,33.05-56.31,49.34-9.23,7.7-17.54,16.3-26.77,23.54-5.08,4.07-10.15,7.7-16.15,10.41-3.23,1.36-6.46,2.72-10.15.45-3.23-2.26-2.77-5.89-2.31-9.51.46-5.88,2.77-11.32,5.08-16.75,4.62-10.86,10.15-20.82,16.15-30.78,17.08-28.52,36-55.23,57.23-80.58,10.16-11.77,19.85-23.99,30-36.22,2.77-3.62,5.54-7.7,7.85-12.22.92-2.26,0-3.62-2.31-3.17-5.54,1.36-10.62,3.17-15.69,5.43-15.23,6.79-29.54,15.39-43.39,24.45-21.23,14.03-42,28.52-60.93,45.72-12.92,11.77-24.46,24.45-34.62,38.48-2.77,4.07-4.62,8.15-6.92,12.22-3.23,5.88-6.46,12.22-9.69,18.11-.92,1.36-1.85,2.72-3.69,1.81-1.85-.91-1.85-2.26-1.38-4.08,2.31-4.98,4.15-9.96,6.46-14.94,6-16.3,12-32.59,18.46-48.89,18.92-45.72,43.39-88.28,74.31-127.21,5.54-6.34,11.54-12.68,17.08-19.01.46-.91,2.31-1.36,1.38-3.17-.46-.91-1.85-.45-3.23-.45-16.16-.91-32.77-.45-48.93.91-18.46,1.36-36,3.62-53.54,8.15-23.08,5.43-44.31,14.49-62.77,29.43-2.77,2.26-5.54,4.98-7.85,7.24-4.62,4.98-8.31,10.41-9.69,17.2-.46,1.81-1.38,3.17-2.31,4.98-.46-7.24,1.85-13.58,6-19.01,9.23-11.32,20.77-19.01,32.77-25.8,18-9.96,36.92-15.84,56.77-19.92,25.39-4.98,51.23-7.24,77.08-7.7,5.54,0,10.62,0,16.15.45,3.69.45,6-.45,8.77-3.17,15.23-14.49,31.39-27.16,48.93-38.48,33.23-21.73,68.31-40.29,107.54-50.25,12.92-3.17,26.31-5.43,40.16-6.34,12-.91,24.46,0,36.46,1.81,10.62,1.81,20.77,4.53,30,9.96,7.85,4.53,14.31,10.41,18.46,19.01,4.62,9.51,3.69,19.01-1.38,28.07-6,12.22-16.15,20.37-27.69,27.16-11.08,6.34-23.54,10.41-36,13.58-33.23,8.15-67.39,10.86-102.01,10.41-25.39,0-50.77-2.26-76.16-4.53-7.38-.45-14.77-.91-22.62-1.36-2.77-.45-5.08.91-6.92,2.72-6.92,6.79-13.38,14.03-19.85,21.28-28.16,32.59-50.31,69.26-70.16,107.29-6.46,11.77-12,24.45-18,36.67-.46.91-1.38,2.26-.92,4.07ZM301.34,99.04c1.85,1.81,3.23,1.36,4.62,1.81,23.54,1.36,47.08,3.62,71.08,4.98,42,2.26,83.54,0,124.62-9.51,13.39-3.17,26.77-8.15,38.31-15.84,7.85-4.53,14.31-10.41,18.92-18.11,5.08-7.24,7.39-15.39,4.62-23.99-2.77-9.51-9.23-15.84-17.54-20.37-13.38-7.24-27.69-9.96-42.46-10.41-26.77-.91-52.16,4.07-77.08,13.58-37.85,14.94-72.47,35.31-104.31,60.21-6.92,5.43-13.85,11.32-20.77,17.65Z"/>
        <path class="uuid-a7d2c09d-4ebc-474e-9713-c1a918d43866" d="M447.65,223.53c-7.38,5.88-14.31,10.87-21.23,15.39-10.62,6.34-21.23,12.68-32.77,17.66-2.31.91-5.08,1.81-7.38,2.26-5.08,1.36-7.85-1.36-7.39-6.34,0-3.17,1.38-5.88,2.77-9.05,6.46-14.03,15.69-26.26,27.23-36.67,8.77-8.15,18-14.94,28.62-19.92,4.15-1.81,8.77-3.17,13.85-3.17,7.38.45,12,5.88,11.54,13.58-.46,2.26-1.38,4.98-1.38,7.24,1.85,0,2.31-.91,3.23-1.81,1.85-2.72,4.15-.45,6.46,0,2.31.45,1.85,2.72,1.38,4.07,0,2.72-1.38,4.98-2.31,7.24-3.23,5.89-7.38,11.77-11.54,17.2-11.54,16.3-24,31.69-34.16,48.89-5.08,9.05-9.69,17.66-12.92,27.16-1.38,3.62-2.77,7.24-2.77,11.32,0,4.98,1.85,6.34,6.92,4.98,3.69-1.36,7.38-3.17,10.62-5.43,6-4.07,12.46-8.15,18.46-12.22,40.62-28.52,82.16-55.68,124.16-81.49,2.31-1.36,4.15-3.17,6.92-3.62.92,1.81-.46,1.81-1.38,2.26-47.54,29.88-94.16,61.11-140.32,93.71-5.54,4.07-11.54,7.7-18.46,9.96-6.46,2.26-12-.91-13.85-6.79-.92-4.07-.46-7.7,0-11.32,1.85-9.05,5.08-17.2,9.23-25.35,8.77-19.01,20.31-36.22,32.77-52.96,1.38-1.81,2.31-3.17,3.23-4.53.46-.45.46-.91.46-2.26ZM457.34,200.45c.46-6.34-2.77-9.05-8.31-8.15-2.77.45-5.08,1.81-7.38,2.72-21.69,12.67-39.7,28.97-53.08,49.8-1.85,2.26-3.23,4.98-4.15,7.7-.92,1.36-1.38,2.72-.46,3.62,1.38,1.36,2.31.45,3.69,0,1.38-.45,2.77-.91,4.15-1.36,22.62-10.41,43.85-23.54,61.39-41.2.92-.45,2.31-1.36,2.31-2.26-.46-4.07,2.31-7.7,1.85-10.87Z"/>
        <path class="uuid-a7d2c09d-4ebc-474e-9713-c1a918d43866" d="M551.96,275.6c3.69-1.36,5.08-3.17,6.92-4.53,15.23-13.13,31.39-25.35,49.39-35.31,6-3.62,12.46-7.24,18.92-9.51,2.77-1.36,5.54-2.26,8.77-2.26,4.15-.45,6.92,1.81,6.46,6.34,0,3.62-1.38,6.79-2.77,9.96-3.69,8.6-7.85,16.75-11.54,25.35-1.38,3.17-2.77,6.34-3.23,9.51,0,4.98,1.38,6.34,6.46,6.79,3.23,0,6.46-.91,9.69-2.26,9.23-3.17,18-7.7,26.31-12.68,22.16-13.58,43.39-28.97,64.62-43.91,2.31-1.81,4.62-3.17,6.92-4.98.46,0,1.38-.45,1.85.45.46.45.46,1.36-.46,1.81-.46.45-1.38,1.36-1.85,1.81-18.46,12.68-36.93,25.35-55.39,38.03-10.62,7.7-22.16,14.49-34.62,19.92-6,2.26-12,4.53-18.92,4.08-6-.45-9.23-3.62-9.69-9.51,0-3.62.92-7.24,2.31-10.87,2.77-9.05,6.92-17.2,10.62-25.8,1.38-2.72,2.77-5.43,3.69-8.15.46-2.26-.46-3.62-2.77-3.17-2.31.45-4.62,1.36-6.46,2.26-10.15,3.62-19.39,9.51-28.16,14.94-20.31,13.13-37.85,28.52-55.39,43.91-2.31,1.81-3.69,4.07-5.08,6.34-7.38,9.05-14.31,18.56-22.16,27.16-1.38,1.36-2.77,3.17-3.69,4.98-.46,2.26-2.31,3.62-3.69,4.98s-2.77,1.81-4.62.91c-1.38-.91-1.85-2.72-1.85-4.53.46-2.26,1.85-4.08,3.23-6.34l19.39-28.52c21.23-31.24,42.92-62.02,65.54-91.9,1.38-1.81,2.77-3.17,3.69-4.98,1.85-3.17,4.15-2.26,6,.45,2.77,4.07,1.38,8.15-.46,12.22-.92,1.81-2.31,3.62-3.23,4.98-13.39,19.01-27.23,37.57-40.62,56.13-1.38,1.81-2.31,3.62-4.15,5.88Z"/>
      </g>
      <g>
        <path class="uuid-cbb114ff-726d-4833-ab1b-d2acabdfb799" d="M34.77,108.18h35.23l32.11,174.26,31.8-174.26h35.54v218.22h-23.38v-182.05l-34.6,182.05h-20.57l-34.6-182.05v182.05h-21.51V108.18Z"/>
        <path class="uuid-cbb114ff-726d-4833-ab1b-d2acabdfb799" d="M199.05,108.18h89.47v22.13h-65.15v71.08h53v22.13h-53v80.74h65.15v22.13h-89.47V108.18Z"/>
        <path class="uuid-cbb114ff-726d-4833-ab1b-d2acabdfb799" d="M307.54,275.59v-116.9c0-34.6,17.15-53.62,49.25-53.62s49.57,19.02,49.57,53.62v17.77h-23.07v-19.33c0-20.57-9.35-29.93-25.87-29.93s-25.56,9.35-25.56,29.93v120.33c0,20.89,9.35,29.93,25.56,29.93s25.87-9.04,25.87-29.93v-48.94h-24v-22.13h47.07v69.21c0,34.6-17.15,53.93-49.57,53.93s-49.25-19.33-49.25-53.93Z"/>
        <path class="uuid-cbb114ff-726d-4833-ab1b-d2acabdfb799" d="M503.93,279.95h-50.5l-8.1,46.45h-22.76l40.53-218.22h32.73l40.84,218.22h-24.63l-8.1-46.45ZM500.19,258.75l-21.82-122.82-21.2,122.82h43.02Z"/>
        <path class="uuid-cbb114ff-726d-4833-ab1b-d2acabdfb799" d="M556.92,108.18h31.17l49.25,155.87V108.18h22.13v218.22h-25.25l-55.18-177.38v177.38h-22.13V108.18Z"/>
      </g>
      <g class="uuid-a343002a-d89c-4121-806e-a6b5df3ce9a4">
        <g>
          <path class="uuid-a7d2c09d-4ebc-474e-9713-c1a918d43866" d="M213.19,213.12c-11.54,6.34-21.69,12.22-32.31,18.56-32.31,19.47-64.16,39.84-96.47,58.4-11.54,6.79-23.54,12.68-36.46,15.84-8.77,2.26-17.54,3.62-26.77,3.17-2.77-.45-5.54-.91-8.31-1.81-7.38-2.72-11.54-7.7-12.46-15.39-1.38-8.6.92-17.2,4.15-24.9,5.08-13.13,13.85-24.45,23.08-34.86,14.31-16.75,31.39-30.33,52.62-38.03,6.92-2.72,14.31-4.07,22.16-3.17,2.31.45,5.08.91,7.38,2.26,5.54,2.26,8.31,6.79,8.77,12.68.46,8.6-2.31,16.75-6.92,23.99-.46.45-1.38,1.36-2.31,1.81-.92.91-1.85.45-2.77-.45-.92-.45-.92-1.36-.92-2.26.46-2.26,2.31-4.53,3.23-6.34,2.77-3.62,3.69-8.15,3.23-12.68-.46-4.07-2.77-7.24-6.92-8.6-3.69-1.36-7.38-1.36-11.08-.91-5.54.91-10.15,2.26-15.23,4.53-12.46,5.88-24,14.03-33.69,23.54-11.54,11.32-21.69,23.09-30,36.22-3.69,6.34-6,12.68-7.85,19.92-.46,1.81-.46,4.07-.46,6.34-.46,7.7,3.69,12.68,11.08,14.94,5.54,1.36,11.08.91,16.16,0,9.69-.91,19.39-3.62,28.16-7.7,16.15-7.24,30.92-16.75,45.69-25.8,29.54-17.2,59.08-34.86,88.62-52.51,3.69-1.81,6.92-3.62,10.62-5.43,1.38-.91,3.23-1.81,6-1.36Z"/>
          <path class="uuid-a7d2c09d-4ebc-474e-9713-c1a918d43866" d="M184.11,276.5c.92,0,1.38-.91,1.85-1.36,19.39-23.99,43.39-42.55,68.77-60.21,18.46-13.13,37.85-25.35,58.62-35.76,6.46-3.17,13.38-5.88,20.31-7.7,3.23-.91,7.38-2.26,10.15.45,3.23,3.17,2.31,6.79.92,10.41-.92,3.62-2.31,6.34-4.15,9.05-8.31,14.49-19.39,27.62-30,40.74-21.23,26.71-42.46,53.87-60.93,82.39-7.38,11.32-14.31,22.63-19.85,34.41-.92,2.72-1.85,5.43-2.31,8.15-.92,3.17.46,4.53,3.69,3.17,2.31-.91,4.62-2.26,6.46-3.62,9.23-5.88,17.54-13.13,25.39-20.37,29.08-26.26,58.62-51.15,88.62-76.51,13.38-10.86,26.77-22.18,41.08-32.14,2.31-1.81,4.62-3.17,7.38-4.07.46.91,0,1.36-.92,1.81-24,16.3-45.7,35.76-67.85,54.32-18.92,16.3-37.85,33.05-56.31,49.34-9.23,7.7-17.54,16.3-26.77,23.54-5.08,4.07-10.15,7.7-16.15,10.41-3.23,1.36-6.46,2.72-10.15.45-3.23-2.26-2.77-5.89-2.31-9.51.46-5.88,2.77-11.32,5.08-16.75,4.62-10.86,10.15-20.82,16.15-30.78,17.08-28.52,36-55.23,57.23-80.58,10.16-11.77,19.85-23.99,30-36.22,2.77-3.62,5.54-7.7,7.85-12.22.92-2.26,0-3.62-2.31-3.17-5.54,1.36-10.62,3.17-15.69,5.43-15.23,6.79-29.54,15.39-43.39,24.45-21.23,14.03-42,28.52-60.93,45.72-12.92,11.77-24.46,24.45-34.62,38.48-2.77,4.07-4.62,8.15-6.92,12.22-3.23,5.88-6.46,12.22-9.69,18.11-.92,1.36-1.85,2.72-3.69,1.81-1.85-.91-1.85-2.26-1.38-4.08,2.31-4.98,4.15-9.96,6.46-14.94,6-16.3,12-32.59,18.46-48.89,18.92-45.72,43.39-88.28,74.31-127.21,5.54-6.34,11.54-12.68,17.08-19.01.46-.91,2.31-1.36,1.38-3.17-.46-.91-1.85-.45-3.23-.45-16.16-.91-32.77-.45-48.93.91-18.46,1.36-36,3.62-53.54,8.15-23.08,5.43-44.31,14.49-62.77,29.43-2.77,2.26-5.54,4.98-7.85,7.24-4.62,4.98-8.31,10.41-9.69,17.2-.46,1.81-1.38,3.17-2.31,4.98-.46-7.24,1.85-13.58,6-19.01,9.23-11.32,20.77-19.01,32.77-25.8,18-9.96,36.92-15.84,56.77-19.92,25.39-4.98,51.23-7.24,77.08-7.7,5.54,0,10.62,0,16.15.45,3.69.45,6-.45,8.77-3.17,15.23-14.49,31.39-27.16,48.93-38.48,33.23-21.73,68.31-40.29,107.54-50.25,12.92-3.17,26.31-5.43,40.16-6.34,12-.91,24.46,0,36.46,1.81,10.62,1.81,20.77,4.53,30,9.96,7.85,4.53,14.31,10.41,18.46,19.01,4.62,9.51,3.69,19.01-1.38,28.07-6,12.22-16.15,20.37-27.69,27.16-11.08,6.34-23.54,10.41-36,13.58-33.23,8.15-67.39,10.86-102.01,10.41-25.39,0-50.77-2.26-76.16-4.53-7.38-.45-14.77-.91-22.62-1.36-2.77-.45-5.08.91-6.92,2.72-6.92,6.79-13.38,14.03-19.85,21.28-28.16,32.59-50.31,69.26-70.16,107.29-6.46,11.77-12,24.45-18,36.67-.46.91-1.38,2.26-.92,4.07ZM301.34,99.04c1.85,1.81,3.23,1.36,4.62,1.81,23.54,1.36,47.08,3.62,71.08,4.98,42,2.26,83.54,0,124.62-9.51,13.39-3.17,26.77-8.15,38.31-15.84,7.85-4.53,14.31-10.41,18.92-18.11,5.08-7.24,7.39-15.39,4.62-23.99-2.77-9.51-9.23-15.84-17.54-20.37-13.38-7.24-27.69-9.96-42.46-10.41-26.77-.91-52.16,4.07-77.08,13.58-37.85,14.94-72.47,35.31-104.31,60.21-6.92,5.43-13.85,11.32-20.77,17.65Z"/>
          <path class="uuid-a7d2c09d-4ebc-474e-9713-c1a918d43866" d="M447.65,223.53c-7.38,5.88-14.31,10.87-21.23,15.39-10.62,6.34-21.23,12.68-32.77,17.66-2.31.91-5.08,1.81-7.38,2.26-5.08,1.36-7.85-1.36-7.39-6.34,0-3.17,1.38-5.88,2.77-9.05,6.46-14.03,15.69-26.26,27.23-36.67,8.77-8.15,18-14.94,28.62-19.92,4.15-1.81,8.77-3.17,13.85-3.17,7.38.45,12,5.88,11.54,13.58-.46,2.26-1.38,4.98-1.38,7.24,1.85,0,2.31-.91,3.23-1.81,1.85-2.72,4.15-.45,6.46,0,2.31.45,1.85,2.72,1.38,4.07,0,2.72-1.38,4.98-2.31,7.24-3.23,5.89-7.38,11.77-11.54,17.2-11.54,16.3-24,31.69-34.16,48.89-5.08,9.05-9.69,17.66-12.92,27.16-1.38,3.62-2.77,7.24-2.77,11.32,0,4.98,1.85,6.34,6.92,4.98,3.69-1.36,7.38-3.17,10.62-5.43,6-4.07,12.46-8.15,18.46-12.22,40.62-28.52,82.16-55.68,124.16-81.49,2.31-1.36,4.15-3.17,6.92-3.62.92,1.81-.46,1.81-1.38,2.26-47.54,29.88-94.16,61.11-140.32,93.71-5.54,4.07-11.54,7.7-18.46,9.96-6.46,2.26-12-.91-13.85-6.79-.92-4.07-.46-7.7,0-11.32,1.85-9.05,5.08-17.2,9.23-25.35,8.77-19.01,20.31-36.22,32.77-52.96,1.38-1.81,2.31-3.17,3.23-4.53.46-.45.46-.91.46-2.26ZM457.34,200.45c.46-6.34-2.77-9.05-8.31-8.15-2.77.45-5.08,1.81-7.38,2.72-21.69,12.67-39.7,28.97-53.08,49.8-1.85,2.26-3.23,4.98-4.15,7.7-.92,1.36-1.38,2.72-.46,3.62,1.38,1.36,2.31.45,3.69,0,1.38-.45,2.77-.91,4.15-1.36,22.62-10.41,43.85-23.54,61.39-41.2.92-.45,2.31-1.36,2.31-2.26-.46-4.07,2.31-7.7,1.85-10.87Z"/>
          <path class="uuid-a7d2c09d-4ebc-474e-9713-c1a918d43866" d="M551.96,275.6c3.69-1.36,5.08-3.17,6.92-4.53,15.23-13.13,31.39-25.35,49.39-35.31,6-3.62,12.46-7.24,18.92-9.51,2.77-1.36,5.54-2.26,8.77-2.26,4.15-.45,6.92,1.81,6.46,6.34,0,3.62-1.38,6.79-2.77,9.96-3.69,8.6-7.85,16.75-11.54,25.35-1.38,3.17-2.77,6.34-3.23,9.51,0,4.98,1.38,6.34,6.46,6.79,3.23,0,6.46-.91,9.69-2.26,9.23-3.17,18-7.7,26.31-12.68,22.16-13.58,43.39-28.97,64.62-43.91,2.31-1.81,4.62-3.17,6.92-4.98.46,0,1.38-.45,1.85.45.46.45.46,1.36-.46,1.81-.46.45-1.38,1.36-1.85,1.81-18.46,12.68-36.93,25.35-55.39,38.03-10.62,7.7-22.16,14.49-34.62,19.92-6,2.26-12,4.53-18.92,4.08-6-.45-9.23-3.62-9.69-9.51,0-3.62.92-7.24,2.31-10.87,2.77-9.05,6.92-17.2,10.62-25.8,1.38-2.72,2.77-5.43,3.69-8.15.46-2.26-.46-3.62-2.77-3.17-2.31.45-4.62,1.36-6.46,2.26-10.15,3.62-19.39,9.51-28.16,14.94-20.31,13.13-37.85,28.52-55.39,43.91-2.31,1.81-3.69,4.07-5.08,6.34-7.38,9.05-14.31,18.56-22.16,27.16-1.38,1.36-2.77,3.17-3.69,4.98-.46,2.26-2.31,3.62-3.69,4.98s-2.77,1.81-4.62.91c-1.38-.91-1.85-2.72-1.85-4.53.46-2.26,1.85-4.08,3.23-6.34l19.39-28.52c21.23-31.24,42.92-62.02,65.54-91.9,1.38-1.81,2.77-3.17,3.69-4.98,1.85-3.17,4.15-2.26,6,.45,2.77,4.07,1.38,8.15-.46,12.22-.92,1.81-2.31,3.62-3.23,4.98-13.39,19.01-27.23,37.57-40.62,56.13-1.38,1.81-2.31,3.62-4.15,5.88Z"/>
        </g>
      </g>
    </g>
  </g>
</svg>